<svg width="14" height="19" viewBox="0 0 14 19" fill="none" xmlns="http://www.w3.org/2000/svg">
<path d="M6.29688 18.3984C6.61328 18.8906 7.35156 18.8906 7.66797 18.3984C12.8008 11.0156 13.75 10.2422 13.75 7.5C13.75 3.77344 10.7266 0.75 7 0.75C3.23828 0.75 0.25 3.77344 0.25 7.5C0.25 10.2422 1.16406 11.0156 6.29688 18.3984ZM7 10.3125C5.41797 10.3125 4.1875 9.08203 4.1875 7.5C4.1875 5.95312 5.41797 4.6875 7 4.6875C8.54688 4.6875 9.8125 5.95312 9.8125 7.5C9.8125 9.08203 8.54688 10.3125 7 10.3125Z" fill="#FFB30E"/>
</svg>
